<svg
        viewBox="0 0 458 143"
        fill="none"
        xmlns="http://www.w3.org/2000/svg"
        width="auto"
        height="143"
      >
        <path
          d="M43.5079 142.205L92.1779 109.849C95.1382 107.374 97.3719 104.606 97.7351 100.604V17.7556C93.2136 -1.7689 65.9841 -3.9203 51.5925 5.98076L0.73513 39.9559V127.415L55.086 91.0111C63.5262 85.9141 74.4706 84.5029 83.475 89.0294C89.4882 92.0521 95.4551 98.969 88.8003 104.783L43.5156 135.234V142.205H43.5079ZM64.2605 92.3451L16.402 124.246V131.641C28.3666 123.652 40.3776 115.71 52.3036 107.667C53.2543 107.027 54.1354 106.441 55.0783 105.809C56.3072 104.976 64.2605 99.8866 64.2605 99.3237V92.3451ZM77.8096 97.8432C76.457 98.0437 75.2358 99.1232 74.1151 99.8635C59.3061 109.68 44.6672 119.781 29.9511 129.744V136.715C33.4755 135.111 36.7449 132.636 39.9989 130.469C52.6668 122.025 65.2807 113.466 77.8096 104.814V97.8432Z"
          fill="#F16267"
        />
        <path
          d="M143.055 92.6259C138.135 92.6259 134.095 91.4659 130.935 89.1459C127.775 86.7859 126.075 83.4259 125.835 79.0659H138.375C138.495 80.5459 138.935 81.6259 139.695 82.3059C140.455 82.9859 141.435 83.3259 142.635 83.3259C143.715 83.3259 144.595 83.0659 145.275 82.5459C145.995 81.9859 146.355 81.2259 146.355 80.2659C146.355 79.0259 145.775 78.0659 144.615 77.3859C143.455 76.7059 141.575 75.9459 138.975 75.1059C136.215 74.1859 133.975 73.3059 132.255 72.4659C130.575 71.5859 129.095 70.3259 127.815 68.6859C126.575 67.0059 125.955 64.8259 125.955 62.1459C125.955 59.4259 126.635 57.1059 127.995 55.1859C129.355 53.2259 131.235 51.7459 133.635 50.7459C136.035 49.7459 138.755 49.2459 141.795 49.2459C146.715 49.2459 150.635 50.4059 153.555 52.7259C156.515 55.0059 158.095 58.2259 158.295 62.3859H145.515C145.475 61.1059 145.075 60.1459 144.315 59.5059C143.595 58.8659 142.655 58.5459 141.495 58.5459C140.615 58.5459 139.895 58.8059 139.335 59.3259C138.775 59.8459 138.495 60.5859 138.495 61.5459C138.495 62.3459 138.795 63.0459 139.395 63.6459C140.035 64.2059 140.815 64.7059 141.735 65.1459C142.655 65.5459 144.015 66.0659 145.815 66.7059C148.495 67.6259 150.695 68.5459 152.415 69.4659C154.175 70.3459 155.675 71.6059 156.915 73.2459C158.195 74.8459 158.835 76.8859 158.835 79.3659C158.835 81.8859 158.195 84.1459 156.915 86.1459C155.675 88.1459 153.855 89.7259 151.455 90.8859C149.095 92.0459 146.295 92.6259 143.055 92.6259Z"
          fill="#5C5C5C"
        />
        <path
          d="M184.162 82.1859V92.2059H179.062C170.462 92.2059 166.162 87.9459 166.162 79.4259V68.3259H162.022V58.5459H166.162V50.3859H177.982V58.5459H184.102V68.3259H177.982V79.6059C177.982 80.5259 178.182 81.1859 178.582 81.5859C179.022 81.9859 179.742 82.1859 180.742 82.1859H184.162Z"
          fill="#5C5C5C"
        />
        <path
          d="M205.216 92.6259C201.856 92.6259 198.836 91.9259 196.156 90.5259C193.516 89.1259 191.436 87.1259 189.916 84.5259C188.396 81.9259 187.636 78.8659 187.636 75.3459C187.636 71.8659 188.396 68.8259 189.916 66.2259C191.476 63.6259 193.576 61.6259 196.216 60.2259C198.896 58.8259 201.916 58.1259 205.276 58.1259C208.636 58.1259 211.636 58.8259 214.276 60.2259C216.956 61.6259 219.056 63.6259 220.576 66.2259C222.136 68.8259 222.916 71.8659 222.916 75.3459C222.916 78.8259 222.136 81.8859 220.576 84.5259C219.056 87.1259 216.956 89.1259 214.276 90.5259C211.596 91.9259 208.576 92.6259 205.216 92.6259ZM205.216 82.4259C206.856 82.4259 208.216 81.8259 209.296 80.6259C210.416 79.3859 210.976 77.6259 210.976 75.3459C210.976 73.0659 210.416 71.3259 209.296 70.1259C208.216 68.9259 206.876 68.3259 205.276 68.3259C203.676 68.3259 202.336 68.9259 201.256 70.1259C200.176 71.3259 199.636 73.0659 199.636 75.3459C199.636 77.6659 200.156 79.4259 201.196 80.6259C202.236 81.8259 203.576 82.4259 205.216 82.4259Z"
          fill="#5C5C5C"
        />
        <path
          d="M239.461 64.4859C240.781 62.5659 242.381 61.0459 244.261 59.9259C246.141 58.8059 248.161 58.2459 250.321 58.2459V70.7859H247.021C244.461 70.7859 242.561 71.2859 241.321 72.2859C240.081 73.2859 239.461 75.0259 239.461 77.5059V92.2059H227.701V58.5459H239.461V64.4859Z"
          fill="#5C5C5C"
        />
        <path
          d="M290.777 58.5459L269.417 108.226H256.637L264.677 90.7659L250.877 58.5459H263.957L271.037 77.6259L277.877 58.5459H290.777Z"
          fill="#5C5C5C"
        />
        <path
          d="M321.297 92.6259C316.377 92.6259 312.337 91.4659 309.177 89.1459C306.017 86.7859 304.317 83.4259 304.077 79.0659H316.617C316.737 80.5459 317.177 81.6259 317.937 82.3059C318.697 82.9859 319.677 83.3259 320.877 83.3259C321.957 83.3259 322.837 83.0659 323.517 82.5459C324.237 81.9859 324.597 81.2259 324.597 80.2659C324.597 79.0259 324.017 78.0659 322.857 77.3859C321.697 76.7059 319.817 75.9459 317.217 75.1059C314.457 74.1859 312.217 73.3059 310.497 72.4659C308.817 71.5859 307.337 70.3259 306.057 68.6859C304.817 67.0059 304.197 64.8259 304.197 62.1459C304.197 59.4259 304.877 57.1059 306.237 55.1859C307.597 53.2259 309.477 51.7459 311.877 50.7459C314.277 49.7459 316.997 49.2459 320.037 49.2459C324.957 49.2459 328.877 50.4059 331.797 52.7259C334.757 55.0059 336.337 58.2259 336.537 62.3859H323.757C323.717 61.1059 323.317 60.1459 322.557 59.5059C321.837 58.8659 320.897 58.5459 319.737 58.5459C318.857 58.5459 318.137 58.8059 317.577 59.3259C317.017 59.8459 316.737 60.5859 316.737 61.5459C316.737 62.3459 317.037 63.0459 317.637 63.6459C318.277 64.2059 319.057 64.7059 319.977 65.1459C320.897 65.5459 322.257 66.0659 324.057 66.7059C326.737 67.6259 328.937 68.5459 330.657 69.4659C332.417 70.3459 333.917 71.6059 335.157 73.2459C336.437 74.8459 337.077 76.8859 337.077 79.3659C337.077 81.8859 336.437 84.1459 335.157 86.1459C333.917 88.1459 332.097 89.7259 329.697 90.8859C327.337 92.0459 324.537 92.6259 321.297 92.6259Z"
          fill="#5C5C5C"
        />
        <path
          d="M364.684 58.2459C368.524 58.2459 371.564 59.5459 373.804 62.1459C376.084 64.7059 377.224 68.1859 377.224 72.5859V92.2059H365.464V74.1459C365.464 72.2259 364.964 70.7259 363.964 69.6459C362.964 68.5259 361.624 67.9659 359.944 67.9659C358.184 67.9659 356.804 68.5259 355.804 69.6459C354.804 70.7259 354.304 72.2259 354.304 74.1459V92.2059H342.544V47.8059H354.304V63.3459C355.344 61.8259 356.744 60.6059 358.504 59.6859C360.304 58.7259 362.364 58.2459 364.684 58.2459Z"
          fill="#5C5C5C"
        />
        <path
          d="M415.837 74.9859C415.837 75.9059 415.777 76.8259 415.657 77.7459H393.397C393.517 79.5859 394.017 80.9659 394.897 81.8859C395.817 82.7659 396.977 83.2059 398.377 83.2059C400.337 83.2059 401.737 82.3259 402.577 80.5659H415.117C414.597 82.8859 413.577 84.9659 412.057 86.8059C410.577 88.6059 408.697 90.0259 406.417 91.0659C404.137 92.1059 401.617 92.6259 398.857 92.6259C395.537 92.6259 392.577 91.9259 389.977 90.5259C387.417 89.1259 385.397 87.1259 383.917 84.5259C382.477 81.9259 381.757 78.8659 381.757 75.3459C381.757 71.8259 382.477 68.7859 383.917 66.2259C385.357 63.6259 387.357 61.6259 389.917 60.2259C392.517 58.8259 395.497 58.1259 398.857 58.1259C402.177 58.1259 405.117 58.8059 407.677 60.1659C410.237 61.5259 412.237 63.4859 413.677 66.0459C415.117 68.5659 415.837 71.5459 415.837 74.9859ZM403.837 72.0459C403.837 70.6059 403.357 69.4859 402.397 68.6859C401.437 67.8459 400.237 67.4259 398.797 67.4259C397.357 67.4259 396.177 67.8259 395.257 68.6259C394.337 69.3859 393.737 70.5259 393.457 72.0459H403.837Z"
          fill="#5C5C5C"
        />
        <path
          d="M432.41 47.8059V92.2059H420.65V47.8059H432.41Z"
          fill="#5C5C5C"
        />
        <path
          d="M457.287 68.3259H452.007V92.2059H440.187V68.3259H436.527V58.5459H440.187V58.2459C440.187 53.9259 441.447 50.6259 443.967 48.3459C446.527 46.0259 450.187 44.8659 454.947 44.8659C455.907 44.8659 456.647 44.8859 457.167 44.9259V54.9459C456.847 54.9059 456.407 54.8859 455.847 54.8859C454.567 54.8859 453.627 55.1859 453.027 55.7859C452.427 56.3459 452.087 57.2659 452.007 58.5459H457.287V68.3259Z"
          fill="#5C5C5C"
        />
      </svg>